name analog
datacolumns 19
datarows 46
range 0.2115 0.234
endheader
time	ground_force_vx	ground_force_vy	ground_force_vz	ground_force_px	ground_force_py	ground_force_pz	l_ground_force_vx	l_ground_force_vy	l_ground_force_vz	l_ground_force_px	l_ground_force_py	l_ground_force_pz	ground_torque_x	ground_torque_y	ground_torque_z	l_ground_torque_x	l_ground_torque_y	l_ground_torque_z
0.2115	-0.0	-0.0	-0.0	-0.4038104116916656	35.45201110839844	-364.1347351074219	-5.475832939147949	-36.30021667480469	-397.3453674316406	-0.0	-0.0	-0.0	-0.0	-0.0	-0.0	114252.8984375	584.3599853515625	-3720.201904296875
0.212	-0.0	-0.0	-0.0	-0.8495302200317383	35.65081024169922	-364.0415649414063	-6.298465728759766	-36.1904411315918	-397.51409912109375	-0.0	-0.0	-0.0	-0.0	-0.0	-0.0	114284.8046875	861.2723388671875	-3892.4560546875
0.2125	-0.0	-0.0	-0.0	-1.0694411993026731	35.85243225097656	-363.59228515625	-6.7636332511901855	-36.69878387451172	-396.29595947265625	-0.0	-0.0	-0.0	-0.0	-0.0	-0.0	114340.5625	1022.1004638671876	-4145.41552734375
0.213	-0.0	-0.0	-0.0	-1.7621175050735474	35.874568939208984	-363.2472534179688	-7.471367835998535	-37.00478363037109	-395.9300231933594	-0.0	-0.0	-0.0	-0.0	-0.0	-0.0	114210.7421875	1432.5977783203125	-4256.67041015625
0.2135	-0.0	-0.0	-0.0	-1.4711508750915527	35.69700241088867	-363.2488098144531	-8.117897987365723	-37.3167724609375	-397.5125427246094	-0.0	-0.0	-0.0	-0.0	-0.0	-0.0	114047.1875	1440.031005859375	-4397.681640625
0.214	-0.0	-0.0	-0.0	-2.274693012237549	36.36555862426758	-362.6250915527344	-8.229832649230957	-37.31667709350586	-397.689697265625	-0.0	-0.0	-0.0	-0.0	-0.0	-0.0	114080.890625	1638.0865478515625	-4597.66015625
0.2145	-0.0	-0.0	-0.0	-2.0963943004608154	36.18694305419922	-361.0372619628906	-8.847938537597656	-37.77864456176758	-396.0290222167969	-0.0	-0.0	-0.0	-0.0	-0.0	-0.0	114153.96875	1981.2249755859373	-4836.50927734375
0.215	-0.0	-0.0	-0.0	-2.632175207138061	36.27588653564453	-361.5677795410156	-9.425272941589355	-38.15496826171875	-396.8128051757813	-0.0	-0.0	-0.0	-0.0	-0.0	-0.0	113878.6796875	2386.910400390625	-5066.94580078125
0.2155	-0.0	-0.0	-0.0	-3.300405979156494	36.12019348144531	-362.2739562988281	-10.291248321533203	-38.4855842590332	-396.63623046875	-0.0	-0.0	-0.0	-0.0	-0.0	-0.0	113781.1171875	2426.404296875	-5267.62939453125
0.216	-0.0	-0.0	-0.0	-3.5022668838500977	36.431297302246094	-361.7451477050781	-11.044781684875488	-38.99431228637695	-397.68597412109375	-0.0	-0.0	-0.0	-0.0	-0.0	-0.0	113793.59375	2544.892578125	-5483.11767578125
0.2165	-0.0	-0.0	-0.0	-4.259583950042725	36.2319450378418	-360.0652160644531	-11.466102600097656	-39.01587677001953	-396.1988830566406	-0.0	-0.0	-0.0	-0.0	-0.0	-0.0	113645.4296875	2578.71923828125	-5683.7919921875
0.217	-0.0	-0.0	-0.0	-4.415361404418945	36.29751968383789	-359.0096130371094	-12.086894035339355	-38.7951545715332	-395.58880615234375	-0.0	-0.0	-0.0	-0.0	-0.0	-0.0	113748.015625	3067.867431640625	-5862.2880859375
0.2175	-0.0	-0.0	-0.0	-4.793303966522217	35.96341323852539	-358.9205017089844	-12.818819999694824	-38.88390350341797	-396.1129455566406	-0.0	-0.0	-0.0	-0.0	-0.0	-0.0	113225.15625	3172.980224609375	-6070.45703125
0.218	-0.0	-0.0	-0.0	-5.398038864135742	36.07513046264648	-358.2080078125	-13.06276798248291	-38.88372802734375	-396.1116943359375	-0.0	-0.0	-0.0	-0.0	-0.0	-0.0	112878.515625	3014.19775390625	-6129.818359375
0.2185	-0.0	-0.0	-0.0	-5.821436405181885	36.02781295776367	-355.9295654296875	-12.907727241516112	-38.99494171142578	-394.3631286621094	-0.0	-0.0	-0.0	-0.0	-0.0	-0.0	112916.1953125	2963.815185546875	-6167.00830078125
0.219	-0.0	-0.0	-0.0	-5.686646461486816	35.89883804321289	-354.7733764648437	-12.684737205505373	-38.97217178344727	-393.843017578125	-0.0	-0.0	-0.0	-0.0	-0.0	-0.0	112617.734375	3135.150390625	-6085.0654296875
0.2195	-0.0	-0.0	-0.0	-5.57448673248291	35.40530014038086	-354.1395874023437	-12.441974639892578	-39.12651062011719	-392.4373474121094	-0.0	-0.0	-0.0	-0.0	-0.0	-0.0	112412.203125	2567.72216796875	-5899.77880859375
0.22	-0.0	-0.0	-0.0	-5.599882125854492	35.04861068725586	-349.3756408691406	-11.621112823486328	-38.64005661010742	-391.0552368164063	-0.0	-0.0	-0.0	-0.0	-0.0	-0.0	111987.484375	2496.452880859375	-5595.37744140625
0.2205	-0.0	-0.0	-0.0	-5.1310200691223145	34.450313568115234	-346.5606384277344	-10.867890357971191	-38.24491882324219	-387.9963684082031	-0.0	-0.0	-0.0	-0.0	-0.0	-0.0	111532.671875	2000.081787109375	-5453.515625
0.221	-0.0	-0.0	-0.0	-4.926572799682617	34.20610046386719	-342.8585510253906	-10.399928092956545	-37.69081497192383	-388.256591796875	-0.0	-0.0	-0.0	-0.0	-0.0	-0.0	111155.140625	1617.7449951171875	-5053.5419921875
0.2215	-0.0	-0.0	-0.0	-4.787485599517822	34.11382293701172	-339.06610107421875	-8.959789276123047	-37.33745574951172	-386.2596740722656	-0.0	-0.0	-0.0	-0.0	-0.0	-0.0	110739.4765625	1304.56494140625	-4873.16064453125
0.222	-0.0	-0.0	-0.0	-3.886007070541382	33.30803680419922	-335.0900573730469	-8.20456314086914	-36.69884490966797	-384.9350280761719	-0.0	-0.0	-0.0	-0.0	-0.0	-0.0	110256.28125	849.2275390625	-4420.66259765625
0.2225	-0.0	-0.0	-0.0	-3.65381932258606	32.5828742980957	-330.76055908203125	-6.965102672576904	-36.47686004638672	-381.6227416992188	-0.0	-0.0	-0.0	-0.0	-0.0	-0.0	109830.375	250.3126220703125	-4035.006591796875
0.223	-0.0	-0.0	-0.0	-3.2815635204315186	32.114349365234375	-327.7672424316406	-5.743297576904297	-36.07796859741211	-379.9671020507813	-0.0	-0.0	-0.0	-0.0	-0.0	-0.0	109513.296875	9.717106819152832	-3750.91748046875
0.2235	-0.0	-0.0	-0.0	-2.3748278617858887	31.815258026123047	-326.3212585449219	-4.727721691131592	-35.616493225097656	-378.4681701660156	-0.0	-0.0	-0.0	-0.0	-0.0	-0.0	109318.4296875	-643.689453125	-3476.46240234375
0.224	-0.0	-0.0	-0.0	-1.9013749361038208	31.401830673217773	-323.17755126953125	-4.149717807769775	-35.024505615234375	-376.46295166015625	-0.0	-0.0	-0.0	-0.0	-0.0	-0.0	108589.8515625	-862.0810546875	-3230.95068359375
0.2245	-0.0	-0.0	-0.0	-2.0892653465271	31.43955421447754	-319.64678955078125	-3.259225606918335	-34.40308380126953	-373.5155334472656	-0.0	-0.0	-0.0	-0.0	-0.0	-0.0	108076.6640625	-1420.9599609375	-2858.80419921875
0.225	-0.0	-0.0	-0.0	-2.5113892555236816	31.51011085510254	-319.1614685058594	-2.858052492141724	-34.48771667480469	-371.05712890625	-0.0	-0.0	-0.0	-0.0	-0.0	-0.0	107571.578125	-1806.447021484375	-2659.907470703125
0.2255	-0.0	-0.0	-0.0	-2.6000897884368896	30.8101863861084	-316.18963623046875	-2.3487772941589355	-33.82720947265625	-369.3110656738281	-0.0	-0.0	-0.0	-0.0	-0.0	-0.0	106905.4375	-2163.407958984375	-2450.47412109375
0.226	-0.0	-0.0	-0.0	-3.176851749420166	30.731843948364254	-314.23638916015625	-2.0360348224639893	-33.320430755615234	-367.3990478515625	-0.0	-0.0	-0.0	-0.0	-0.0	-0.0	106442.28125	-2621.764892578125	-2383.034423828125
0.2265	-0.0	-0.0	-0.0	-3.3187663555145264	30.33382225036621	-310.9635314941406	-1.5080833435058594	-33.69245529174805	-364.0733947753906	-0.0	-0.0	-0.0	-0.0	-0.0	-0.0	105855.6640625	-2783.182861328125	-2189.17529296875
0.227	-0.0	-0.0	-0.0	-3.9728968143463135	30.37572479248047	-308.06719970703125	-1.1483935117721558	-33.55741882324219	-361.2450256347656	-0.0	-0.0	-0.0	-0.0	-0.0	-0.0	105023.0546875	-3155.8798828125	-2137.329833984375
0.2275	-0.0	-0.0	-0.0	-4.347448348999023	30.731237411499023	-303.0779113769531	-0.9992571473121644	-32.990665435791016	-358.9278564453125	-0.0	-0.0	-0.0	-0.0	-0.0	-0.0	104211.796875	-3230.487060546875	-2034.0826416015625
0.228	-0.0	-0.0	-0.0	-4.454046249389648	30.589155197143555	-300.0648193359375	-0.9810835123062134	-32.837520599365234	-355.69305419921875	-0.0	-0.0	-0.0	-0.0	-0.0	-0.0	103259.4765625	-3307.08056640625	-2032.288818359375
0.2285	-0.0	-0.0	-0.0	-4.57372522354126	30.43466186523437	-296.00634765625	-0.6625658273696899	-33.2324104309082	-353.8325500488281	-0.0	-0.0	-0.0	-0.0	-0.0	-0.0	102501.3515625	-3557.06787109375	-1935.2255859375
0.229	-0.0	-0.0	-0.0	-4.4605255126953125	30.002859115600582	-292.1473388671875	-0.4199325144290924	-32.773094177246094	-350.45526123046875	-0.0	-0.0	-0.0	-0.0	-0.0	-0.0	101782.5078125	-3901.619140625	-1871.4898681640625
0.2295	-0.0	-0.0	-0.0	-4.614823341369629	30.232030868530277	-288.0993347167969	-0.1834862232208252	-33.120635986328125	-348.615966796875	-0.0	-0.0	-0.0	-0.0	-0.0	-0.0	100893.921875	-4121.55810546875	-1818.049560546875
0.23	-0.0	-0.0	-0.0	-4.638946533203125	29.890310287475582	-283.794921875	0.2249075919389724	-33.02608108520508	-345.12408447265625	-0.0	-0.0	-0.0	-0.0	-0.0	-0.0	100089.4609375	-4216.1103515625	-1841.553466796875
0.2305	-0.0	-0.0	-0.0	-4.330572605133057	30.3131103515625	-281.8681945800781	0.2488334476947784	-32.9375114440918	-341.05303955078125	-0.0	-0.0	-0.0	-0.0	-0.0	-0.0	99268.5078125	-4231.31103515625	-1934.176513671875
0.231	-0.0	-0.0	-0.0	-4.5983500480651855	30.952533721923828	-278.0805969238281	-0.0170815736055374	-33.40260696411133	-338.5830993652344	-0.0	-0.0	-0.0	-0.0	-0.0	-0.0	98495.6953125	-4277.86181640625	-1828.259033203125
0.2315	-0.0	-0.0	-0.0	-4.225464344024658	30.93645668029785	-276.9580993652344	0.1365613490343094	-33.60292434692383	-335.6955261230469	-0.0	-0.0	-0.0	-0.0	-0.0	-0.0	97725.2890625	-4397.548828125	-1922.937255859375
0.232	-0.0	-0.0	-0.0	-4.801393032073975	31.632862091064453	-274.1976928710937	-0.2181707769632339	-33.64338302612305	-333.7889404296875	-0.0	-0.0	-0.0	-0.0	-0.0	-0.0	97157.0625	-4433.26416015625	-2015.4246826171875
0.2325	-0.0	-0.0	-0.0	-4.574214458465576	31.78803253173828	-273.9707336425781	-0.2420853972434997	-33.65056610107422	-331.5993957519531	-0.0	-0.0	-0.0	-0.0	-0.0	-0.0	96351.1640625	-4413.32421875	-1947.42333984375
0.233	-0.0	-0.0	-0.0	-4.663486480712891	31.957719802856445	-274.1293640136719	-0.4271668493747711	-33.83489227294922	-329.090576171875	-0.0	-0.0	-0.0	-0.0	-0.0	-0.0	95687.171875	-4625.42724609375	-2109.56494140625
0.2335	-0.0	-0.0	-0.0	-4.500510692596436	32.36356735229492	-275.4803466796875	-0.6209754943847656	-34.01182556152344	-326.9962463378906	-0.0	-0.0	-0.0	-0.0	-0.0	-0.0	94999.4140625	-4531.0302734375	-2204.219482421875
0.234	-0.0	-0.0	-0.0	-4.445300579071045	32.21592712402344	-275.9914245605469	-0.6452047824859619	-33.7470588684082	-326.487548828125	-0.0	-0.0	-0.0	-0.0	-0.0	-0.0	94696.1953125	-4474.29443359375	-2258.1396484375
